<svg width="36" height="40" viewBox="0 0 36 40" fill="none" xmlns="http://www.w3.org/2000/svg">
<circle cx="18" cy="21" r="18" fill="#272727"/>
<path d="M16.5225 14.4824C16.5225 13.8965 16.7373 13.3984 17.167 12.9883C17.6162 12.5586 18.1436 12.3438 18.749 12.3438C19.335 12.3438 19.8232 12.5586 20.2139 12.9883C20.624 13.3984 20.8291 13.8965 20.8291 14.4824C20.8291 15.0879 20.624 15.625 20.2139 16.0938C19.8232 16.543 19.335 16.7676 18.749 16.7676C18.1436 16.7676 17.6162 16.543 17.167 16.0938C16.7373 15.625 16.5225 15.0879 16.5225 14.4824ZM17.8408 25.5273C17.8408 25.2344 17.6846 24.9023 17.3721 24.5312C17.0791 24.1406 16.9326 23.6914 16.9326 23.1836C16.9326 22.793 17.1279 22.3438 17.5186 21.8359C17.9092 21.3281 18.4951 21.0742 19.2764 21.0742C19.8428 21.0742 20.2334 21.1523 20.4482 21.3086C20.7217 22.0312 20.8584 22.7539 20.8584 23.4766C20.8584 23.7695 20.8096 24.1895 20.7119 24.7363C20.6143 25.2832 20.5361 25.6152 20.4775 25.7324C20.1455 26.5723 19.5596 27.4316 18.7197 28.3105C17.8799 29.1895 17.2061 29.7266 16.6982 29.9219H16.6396C16.5225 29.9219 16.3857 29.7852 16.2295 29.5117C16.0732 29.2578 15.9951 29.0625 15.9951 28.9258C15.9951 28.9062 16.1416 28.7598 16.4346 28.4863C16.7471 28.2324 17.0596 27.8418 17.3721 27.3145C17.6846 26.7871 17.8408 26.1914 17.8408 25.5273Z" fill="white"/>
</svg>
